<?xml version="1.0" encoding="iso-8859-1"?>
<!-- Generator: Adobe Illustrator 19.0.0, SVG Export Plug-In . SVG Version: 6.00 Build 0)  -->
<svg version="1.1" id="Layer_1" xmlns="http://www.w3.org/2000/svg" xmlns:xlink="http://www.w3.org/1999/xlink" x="0px" y="0px"
	 viewBox="0 0 512.005 512.005" style="enable-background:new 0 0 512.005 512.005;" xml:space="preserve">
<circle style="fill:#3A99D7;" cx="256.003" cy="256.003" r="256.003"/>
<path style="fill:#2682BF;" d="M500.867,331.12c-21.613,70.606-72.964,128.225-139.408,158.314L150.892,278.867
	C64.339,124.465,220.446,67.397,295.817,126.12l205,205H500.867z"/>
<path style="fill:#FFFFFF;" d="M293.409,276.309l18.604,24.12l2.107-1.655c2.357-1.855,5.817-1.404,7.672,1.003l66.144,86.504
	c1.805,2.407,1.404,5.817-1.003,7.672l-19.858,15.345c-2.357,1.855-5.817,1.404-7.672-1.003l-66.144-86.504
	c-1.805-2.407-1.404-5.817,1.003-7.672l2.107-1.605l-18.454-23.97c-45.634,29.587-107.113,19.507-140.762-24.421
	c-35.353-46.185-26.628-112.279,19.557-147.632s112.279-26.628,147.632,19.557c33.047,43.127,27.581,103.604-10.882,140.211
	L293.409,276.309z M282.729,285.235c0.651-0.501,1.354-1.003,2.005-1.504C284.083,284.233,283.38,284.734,282.729,285.235z
	 M284.734,283.731c0.702-0.551,1.404-1.103,2.107-1.655C286.138,282.627,285.436,283.18,284.734,283.731z M168.744,132.287
	c37.46-28.684,91.117-21.613,119.801,15.896c28.684,37.46,21.613,91.117-15.896,119.801c-37.46,28.684-91.117,21.613-119.801-15.896
	C124.164,214.629,131.235,160.972,168.744,132.287z"/>
<path style="fill:#E84F4F;" d="M314.521,298.525l-18.203,14.041l-2.107,1.605c-2.407,1.855-2.808,5.266-1.003,7.672l66.144,86.504
	c1.805,2.407,5.266,2.808,7.672,1.003l19.858-15.345c2.357-1.855,2.808-5.266,1.003-7.672l-66.144-86.504
	C320.037,297.572,316.878,297.07,314.521,298.525z"/>
<path style="fill:#C94545;" d="M311.963,300.48l2.107-1.655c2.357-1.855,5.817-1.404,7.672,1.003l66.144,86.504
	c1.805,2.407,1.404,5.817-1.003,7.672l-9.929,7.672l-72.111-95.68L311.963,300.48z"/>
<path style="fill:#00CC96;" d="M229.021,145.276l11.483,11.383l-17.802,17.903l-8.675-8.625l0.05-0.05l-10.982-10.932l-0.05,0.05
	l-0.05-0.05l-10.932,10.982l0.05,0.05l-28.132,28.333l10.982,10.932l28.181-28.333l8.675,8.625l-0.1,0.05l10.982,10.932l0.05-0.1
	l0.1,0.1l10.932-10.982l-0.05-0.05l17.802-17.903l11.383,11.333l2.457-19.507l2.558-19.457l-19.457,2.708l-19.507,2.608
	L229.021,145.276L229.021,145.276z"/>
<path style="fill:#FFD630;" d="M170.55,253.493l18.053-0.05l-0.1-25.374l-18.053,0.05L170.55,253.493z M249.23,253.242l18.053-0.05
	l-0.2-60.327l-18.053,0.05L249.23,253.242z M223.856,253.343l18.053-0.05l-0.1-36.357l-18.053,0.05L223.856,253.343z
	 M197.378,253.443l18.053-0.05l-0.15-48.793l-18.053,0.05L197.378,253.443z"/>
<g>
</g>
<g>
</g>
<g>
</g>
<g>
</g>
<g>
</g>
<g>
</g>
<g>
</g>
<g>
</g>
<g>
</g>
<g>
</g>
<g>
</g>
<g>
</g>
<g>
</g>
<g>
</g>
<g>
</g>
</svg>
